# xmcd
#
# Track frame offsets:
#	150
#	18988
#	40412
#	65789
#	87110
#	108453
#	136281
#	159119
#	175581
#	199095
#	224133
#	243003
#
# Disc length: 3516 seconds
#
# Revision: 0
# Processed by: cddbd v1.5.2PL0 Copyright (c) Steve Scherf et al.
# Submitted via: audiograbber 1.83.01
#
DISCID=a00dba0c
DTITLE=Michael Cleary Band - Uplift
DYEAR=2015
DGENRE=Blues
TTITLE0=How You Keep It Up
TTITLE1=Love Is Such A Sweet Sound
TTITLE2=2nd Nature
TTITLE3=I Do Not Care What You Look Like
TTITLE4=Every Day Is A Holiday
TTITLE5=See You Later
TTITLE6=Turn It Around
TTITLE7=Home
TTITLE8=Look At Me Know
TTITLE9=Giving Up Good Love
TTITLE10=Dontcha Think
TTITLE11=Do Not Stray
EXTD=
EXTT0=
EXTT1=
EXTT2=
EXTT3=
EXTT4=
EXTT5=
EXTT6=
EXTT7=
EXTT8=
EXTT9=
EXTT10=
EXTT11=
PLAYORDER=
